# Blender v2.78 (sub 0) OBJ File: 'dual_cube_different_normals.blend'
# www.blender.org
mtllib dual_cube_different_normals.mtl
o Cube
v 1.000000 -0.794624 -1.000000
v 1.000000 -2.794624 -1.000000
v -1.000000 -2.794624 -1.000000
v -1.000000 -0.794624 -1.000000
v 1.000000 -0.794625 1.000000
v 0.999999 -2.794625 1.000000
v -1.000000 -2.794624 1.000000
v -1.000000 -0.794624 1.000000
vt 0.3333 0.6667
vt 0.0000 0.3333
vt 0.3333 0.3333
vt 0.6667 0.0000
vt 0.3333 0.3333
vt 0.3333 0.0000
vt 0.3333 0.0000
vt 0.0000 0.3333
vt 0.0000 0.0000
vt 1.0000 0.0000
vt 0.6667 0.3333
vt 0.6667 0.0000
vt 0.0000 1.0000
vt 0.3333 0.6667
vt 0.3333 1.0000
vt 0.6667 0.6667
vt 0.3333 0.6667
vt 0.0000 0.6667
vt 0.6667 0.3333
vt 0.3333 0.3333
vt 1.0000 0.3333
vt 0.0000 0.6667
vt 0.6667 0.3333
vn 0.0000 0.0000 1.0000
vn 0.0000 0.0000 -1.0000
vn -1.0000 0.0000 0.0000
vn 0.0000 1.0000 0.0000
vn 1.0000 -0.0000 0.0000
vn -0.0000 -1.0000 -0.0000
usemtl Material
s off
f 4/1/1 2/2/1 1/3/1
f 6/4/2 8/5/2 5/6/2
f 2/7/3 5/8/3 1/9/3
f 3/10/4 6/11/4 2/12/4
f 3/13/5 8/14/5 7/15/5
f 8/5/6 1/16/6 5/17/6
f 4/1/1 3/18/1 2/2/1
f 6/4/2 7/19/2 8/5/2
f 2/7/3 6/20/3 5/8/3
f 3/10/4 7/21/4 6/11/4
f 3/13/5 4/22/5 8/14/5
f 8/5/6 4/23/6 1/16/6
o Cube.001
v 1.000000 2.637623 -1.000000
v 1.000000 0.637623 -1.000000
v -1.000000 0.637623 -1.000000
v -1.000000 2.637623 -1.000000
v 1.000000 2.637622 1.000000
v 0.999999 0.637622 1.000000
v -1.000000 0.637623 1.000000
v -1.000000 2.637623 1.000000
vt 0.3333 0.6667
vt 0.0000 1.0000
vt 0.0000 0.6667
vt 0.6667 0.6667
vt 0.3333 0.3333
vt 0.6667 0.3333
vt 0.3333 0.3333
vt 0.6667 0.0000
vt 0.6667 0.3333
vt 0.0000 0.0000
vt 0.3333 0.3333
vt 0.0000 0.3333
vt 1.0000 0.3333
vt 0.6667 0.0000
vt 1.0000 0.0000
vt 0.3333 0.3333
vt 0.0000 0.6667
vt 0.0000 0.3333
vt 0.3333 1.0000
vt 0.3333 0.6667
vt 0.3333 0.0000
vt 0.3333 0.0000
vt 0.6667 0.3333
vt 0.3333 0.6667
vn 0.0000 0.0000 -1.0000
vn 0.0000 0.0000 1.0000
vn 1.0000 0.0000 -0.0000
vn -0.0000 -1.0000 -0.0000
vn -1.0000 0.0000 -0.0000
vn 0.0000 1.0000 0.0000
usemtl Material.001
s off
f 10/24/7 12/25/7 9/26/7
f 16/27/8 14/28/8 13/29/8
f 13/30/9 10/31/9 9/32/9
f 14/33/10 11/34/10 10/35/10
f 11/36/11 16/37/11 12/38/11
f 9/39/12 16/40/12 13/41/12
f 10/24/7 11/42/7 12/25/7
f 16/27/8 15/43/8 14/28/8
f 13/30/9 14/44/9 10/31/9
f 14/33/10 15/45/10 11/34/10
f 11/36/11 15/46/11 16/37/11
f 9/39/12 12/47/12 16/40/12
