# Blender v2.78 (sub 0) OBJ File: 'dual_cube_different_normals.blend'
# www.blender.org
mtllib dual_cube_different_normals.mtl
o Cube.001
v 1.000000 -0.794624 -1.000000
v 1.000000 -2.794624 -1.000000
v -1.000000 -2.794623 -1.000000
v -1.000000 -0.794624 -1.000000
v 1.000000 -0.794624 1.000000
v 0.999999 -2.794624 1.000000
v -1.000000 -2.794623 1.000000
v -1.000000 -0.794624 1.000000
v 1.000000 2.637623 -1.000000
v 1.000000 0.637623 -1.000000
v -1.000000 0.637623 -1.000000
v -1.000000 2.637623 -1.000000
v 1.000000 2.637622 1.000000
v 0.999999 0.637622 1.000000
v -1.000000 0.637623 1.000000
v -1.000000 2.637623 1.000000
vt 0.2500 0.7500
vt 0.0000 0.5000
vt 0.2500 0.5000
vt 0.7500 0.7500
vt 0.5000 0.5000
vt 0.7500 0.5000
vt 0.2500 0.0000
vt 0.5000 0.2500
vt 0.2500 0.2500
vt 0.2500 1.0000
vt 0.0000 0.7500
vt 0.2500 0.7500
vt 0.2500 0.2500
vt 0.0000 0.5000
vt 0.0000 0.2500
vt 0.5000 0.0000
vt 0.7500 0.2500
vt 0.0000 0.7500
vt 0.5000 0.7500
vt 0.5000 0.0000
vt 0.0000 1.0000
vt 0.2500 0.5000
vt 0.7500 0.0000
vt 1.0000 0.2500
vt 0.7500 0.5000
vt 0.7500 0.2500
vt 0.5000 0.7500
vt 0.2500 0.5000
vt 0.5000 0.5000
vt 0.2500 0.5000
vt 0.5000 0.2500
vt 0.5000 0.5000
vt 0.7500 0.2500
vt 1.0000 0.0000
vt 0.2500 0.2500
vt 0.0000 0.0000
vt 0.2500 0.0000
vt 0.5000 0.5000
vt 0.5000 0.2500
vt 1.0000 0.5000
vt 0.2500 0.7500
vt 0.2500 0.2500
vt 0.7500 0.0000
vt 0.0000 0.2500
vn 0.0000 0.0000 1.0000
vn 0.0000 0.0000 -1.0000
vn -1.0000 0.0000 0.0000
vn 0.0000 1.0000 0.0000
vn 1.0000 -0.0000 0.0000
vn -0.0000 -1.0000 -0.0000
usemtl Material.001
s off
f 4/1/1 2/2/1 1/3/1
f 6/4/2 8/5/2 5/6/2
usemtl Material
f 2/7/3 5/8/3 1/9/3
f 3/10/4 6/11/4 2/12/4
f 3/13/5 8/14/5 7/15/5
f 8/16/6 1/17/6 5/8/6
usemtl Material.001
f 4/1/1 3/18/1 2/2/1
f 6/4/2 7/19/2 8/5/2
usemtl Material
f 2/7/3 6/20/3 5/8/3
f 3/10/4 7/21/4 6/11/4
f 3/13/5 4/22/5 8/14/5
f 8/16/6 4/23/6 1/17/6
usemtl Material.001
f 10/24/2 12/25/2 9/26/2
f 16/27/1 14/28/1 13/29/1
f 13/30/5 10/31/5 9/32/5
f 14/33/6 11/34/6 10/24/6
f 11/35/3 16/36/3 12/37/3
f 9/26/4 16/38/4 13/39/4
f 10/24/2 11/40/2 12/25/2
f 16/27/1 15/41/1 14/28/1
f 13/30/5 14/42/5 10/31/5
f 14/33/6 15/43/6 11/34/6
f 11/35/3 15/44/3 16/36/3
f 9/26/4 12/25/4 16/38/4
