# Blender v2.78 (sub 0) OBJ File: 'scene.blend'
# www.blender.org
mtllib scene.mtl
o Room_Cube.001
v -2.000000 4.000000 2.000000
v -2.000000 4.000000 -2.000000
v 2.000000 4.000000 -2.000000
v 1.999999 4.000000 2.000001
v -2.000001 0.000000 1.999999
v -1.999999 0.000000 -2.000001
v 2.000001 0.000000 -1.999999
v 2.000000 0.000000 2.000000
v -2.000000 4.000000 -0.000000
v -0.000000 4.000000 2.000000
v -2.000000 2.000000 1.999999
v 0.000000 4.000000 -2.000000
v -1.999999 2.000000 -2.000000
v 2.000000 4.000000 0.000001
v 2.000000 2.000000 -2.000000
v 2.000000 2.000000 2.000000
v -2.000000 0.000000 -0.000001
v -0.000000 0.000000 2.000000
v 0.000001 0.000000 -2.000000
v 2.000000 0.000000 0.000000
v -0.000000 2.000000 2.000000
v 2.000000 2.000000 0.000000
v 0.000001 2.000000 -2.000000
v -2.000000 2.000000 -0.000001
v 0.000000 0.000000 -0.000000
v -0.000000 4.000000 0.000000
v -2.000000 4.000000 -1.000000
v 0.999999 4.000000 2.000000
v -2.000001 1.000000 1.999999
v 1.000000 4.000000 -2.000000
v -1.999999 1.000000 -2.000001
v 2.000000 4.000000 1.000001
v 2.000000 1.000000 -1.999999
v 2.000000 1.000000 2.000000
v -1.999999 0.000000 -1.000001
v 1.000000 0.000000 2.000000
v 1.000001 0.000000 -2.000000
v 2.000000 0.000000 1.000000
v -2.000000 4.000000 1.000000
v -1.000000 4.000000 2.000000
v -2.000000 3.000000 2.000000
v -1.000000 4.000000 -2.000000
v -2.000000 3.000000 -2.000000
v 2.000000 4.000000 -1.000000
v 2.000000 3.000000 -2.000000
v 1.999999 3.000000 2.000000
v -2.000000 0.000000 0.999999
v -1.000001 0.000000 1.999999
v -0.999999 0.000000 -2.000001
v 2.000000 0.000000 -0.999999
v -0.000000 3.000000 2.000000
v -0.000000 1.000000 2.000000
v -1.000000 2.000000 2.000000
v 1.000000 2.000000 2.000000
v 2.000000 1.000000 0.000000
v 2.000000 3.000000 0.000001
v 2.000000 2.000000 -1.000000
v 2.000000 2.000000 1.000000
v 0.000001 1.000000 -2.000000
v 0.000000 3.000000 -2.000000
v -0.999999 2.000000 -2.000000
v 1.000000 2.000000 -2.000000
v -2.000000 1.000000 -0.000001
v -2.000000 3.000000 -0.000000
v -2.000000 2.000000 0.999999
v -2.000000 2.000000 -1.000000
v 1.000000 0.000000 0.000000
v -1.000000 0.000000 -0.000001
v -0.000000 0.000000 1.000000
v 0.000001 0.000000 -1.000000
v -0.000000 4.000000 -1.000000
v -0.000000 4.000000 1.000000
v -1.000000 4.000000 0.000000
v 1.000000 4.000000 0.000000
v 1.000000 4.000000 1.000000
v -1.000000 4.000000 1.000000
v -1.000000 4.000000 -1.000000
v -0.999999 0.000000 -1.000001
v -1.000000 0.000000 0.999999
v 1.000000 0.000000 1.000000
v -2.000000 3.000000 -1.000000
v -2.000000 3.000000 1.000000
v -2.000000 1.000000 0.999999
v 1.000000 3.000000 -2.000000
v -1.000000 3.000000 -2.000000
v -0.999999 1.000000 -2.000000
v 2.000000 3.000000 1.000000
v 2.000000 3.000000 -1.000000
v 2.000000 1.000000 -1.000000
v 1.000000 1.000000 2.000000
v -1.000001 1.000000 2.000000
v -1.000000 3.000000 2.000000
v 1.000000 3.000000 2.000000
v 2.000000 1.000000 1.000000
v 1.000001 1.000000 -2.000000
v -1.999999 1.000000 -1.000001
v 1.000000 0.000000 -1.000000
v 1.000000 4.000000 -1.000000
vt 0.5833 0.2500
vt 0.5833 0.3333
vt 0.6667 0.3333
vt 0.6667 0.2500
vt 0.2500 0.2500
vt 0.2500 0.3333
vt 0.3333 0.3333
vt 0.3333 0.2500
vt 0.5833 0.4167
vt 0.6667 0.4167
vt 0.6667 0.3333
vt 0.5833 0.3333
vt 0.5833 0.5833
vt 0.6667 0.5833
vt 0.6667 0.5000
vt 0.5833 0.5000
vt 0.4167 0.5833
vt 0.5000 0.5833
vt 0.5000 0.5000
vt 0.4167 0.5000
vt 0.4167 0.4167
vt 0.5000 0.4167
vt 0.5000 0.3333
vt 0.4167 0.3333
vt 0.0833 0.2500
vt 0.0833 0.3333
vt 0.1667 0.3333
vt 0.1667 0.2500
vt 0.0833 0.0833
vt 0.0833 0.1667
vt 0.1667 0.1667
vt 0.1667 0.0833
vt 0.2500 0.0833
vt 0.2500 0.1667
vt 0.3333 0.1667
vt 0.3333 0.0833
vt 0.4167 0.2500
vt 0.4167 0.3333
vt 0.5000 0.3333
vt 0.5000 0.2500
vt 0.4167 0.0833
vt 0.4167 0.1667
vt 0.5000 0.1667
vt 0.5000 0.0833
vt 0.5833 0.0833
vt 0.5833 0.1667
vt 0.6667 0.1667
vt 0.6667 0.0833
vt 0.5000 0.0000
vt 0.5833 0.0000
vt 0.6667 0.0000
vt 0.3333 0.0833
vt 0.3333 0.1667
vt 0.3333 0.0000
vt 0.4167 0.0000
vt 0.3333 0.2500
vt 0.3333 0.3333
vt 0.1667 0.0000
vt 0.2500 0.0000
vt 0.3333 0.0000
vt 0.0000 0.0833
vt 0.0000 0.1667
vt 0.0000 0.0000
vt 0.0833 0.0000
vt 0.0000 0.2500
vt 0.0000 0.3333
vt 0.3333 0.5000
vt 0.3333 0.4167
vt 0.4167 0.6667
vt 0.5000 0.6667
vt 0.3333 0.6667
vt 0.3333 0.5833
vt 0.5833 0.6667
vt 0.6667 0.6667
vt 0.9167 0.2500
vt 0.9167 0.3333
vt 1.0000 0.3333
vt 1.0000 0.2500
vt 0.7500 0.2500
vt 0.7500 0.3333
vt 0.8333 0.3333
vt 0.8333 0.2500
vt 0.7500 0.0833
vt 0.7500 0.1667
vt 0.8333 0.1667
vt 0.8333 0.0833
vt 0.9167 0.0833
vt 0.9167 0.1667
vt 1.0000 0.1667
vt 1.0000 0.0833
vt 0.8333 0.0000
vt 0.9167 0.0000
vt 1.0000 0.0000
vt 0.6667 0.0833
vt 0.6667 0.1667
vt 0.6667 0.0000
vt 0.7500 0.0000
vt 0.6667 0.2500
vt 0.6667 0.3333
vt 0.2500 0.7500
vt 0.3333 0.7500
vt 0.3333 0.6667
vt 0.2500 0.6667
vt 0.2500 0.9167
vt 0.3333 0.9167
vt 0.3333 0.8333
vt 0.2500 0.8333
vt 0.0833 0.9167
vt 0.1667 0.9167
vt 0.1667 0.8333
vt 0.0833 0.8333
vt 0.0833 0.7500
vt 0.1667 0.7500
vt 0.1667 0.6667
vt 0.0833 0.6667
vt 0.0000 0.8333
vt 0.0000 0.7500
vt 0.0000 0.6667
vt 0.0833 1.0000
vt 0.1667 1.0000
vt 0.0000 1.0000
vt 0.0000 0.9167
vt 0.2500 1.0000
vt 0.3333 1.0000
vt 0.0833 0.5833
vt 0.0000 0.5833
vt 0.0000 0.6667
vt 0.0833 0.6667
vt 0.0833 0.4167
vt 0.0000 0.4167
vt 0.0000 0.5000
vt 0.0833 0.5000
vt 0.2500 0.4167
vt 0.1667 0.4167
vt 0.1667 0.5000
vt 0.2500 0.5000
vt 0.2500 0.5833
vt 0.1667 0.5833
vt 0.1667 0.6667
vt 0.2500 0.6667
vt 0.3333 0.5000
vt 0.3333 0.5833
vt 0.3333 0.6667
vt 0.2500 0.3333
vt 0.1667 0.3333
vt 0.3333 0.3333
vt 0.3333 0.4167
vt 0.0833 0.3333
vt 0.0000 0.3333
vn 0.0000 1.0000 0.0000
vn 1.0000 0.0000 0.0000
vn 0.0000 0.0000 -1.0000
vn -0.0000 0.0000 1.0000
vn -1.0000 -0.0000 -0.0000
vn 0.0000 -1.0000 -0.0000
usemtl Material
s off
f 97/1/1 50/2/1 7/3/1 37/4/1
f 96/5/2 35/6/2 6/7/2 31/8/2
f 93/9/3 28/10/3 4/11/3 46/12/3
f 92/13/3 40/14/3 10/15/3 51/16/3
f 91/17/3 53/18/3 21/19/3 52/20/3
f 90/21/3 54/22/3 16/23/3 34/24/3
f 83/25/2 47/26/2 17/27/2 63/28/2
f 82/29/2 65/30/2 24/31/2 64/32/2
f 81/33/2 66/34/2 13/35/2 43/36/2
f 80/37/1 38/38/1 20/39/1 67/40/1
f 79/41/1 69/42/1 25/43/1 68/44/1
f 78/45/1 70/46/1 19/47/1 49/48/1
f 68/44/1 25/43/1 70/46/1 78/45/1
f 17/49/1 68/44/1 78/45/1 35/50/1
f 35/50/1 78/45/1 49/48/1 6/51/1
f 48/52/1 18/53/1 69/42/1 79/41/1
f 5/54/1 48/52/1 79/41/1 47/55/1
f 47/55/1 79/41/1 68/44/1 17/49/1
f 36/56/1 8/57/1 38/38/1 80/37/1
f 18/53/1 36/56/1 80/37/1 69/42/1
f 69/42/1 80/37/1 67/40/1 25/43/1
f 64/32/2 24/31/2 66/34/2 81/33/2
f 9/58/2 64/32/2 81/33/2 27/59/2
f 27/59/2 81/33/2 43/36/2 2/60/2
f 41/61/2 11/62/2 65/30/2 82/29/2
f 1/63/2 41/61/2 82/29/2 39/64/2
f 39/64/2 82/29/2 64/32/2 9/58/2
f 29/65/2 5/66/2 47/26/2 83/25/2
f 11/62/2 29/65/2 83/25/2 65/30/2
f 65/30/2 83/25/2 63/28/2 24/31/2
f 52/20/3 21/19/3 54/22/3 90/21/3
f 18/67/3 52/20/3 90/21/3 36/68/3
f 36/68/3 90/21/3 34/24/3 8/57/3
f 29/69/3 11/70/3 53/18/3 91/17/3
f 5/71/3 29/69/3 91/17/3 48/72/3
f 48/72/3 91/17/3 52/20/3 18/67/3
f 41/73/3 1/74/3 40/14/3 92/13/3
f 11/70/3 41/73/3 92/13/3 53/18/3
f 53/18/3 92/13/3 51/16/3 21/19/3
f 51/16/3 10/15/3 28/10/3 93/9/3
f 21/19/3 51/16/3 93/9/3 54/22/3
f 54/22/3 93/9/3 46/12/3 16/23/3
f 63/28/2 17/27/2 35/6/2 96/5/2
f 24/31/2 63/28/2 96/5/2 66/34/2
f 66/34/2 96/5/2 31/8/2 13/35/2
f 67/40/1 20/39/1 50/2/1 97/1/1
f 25/43/1 67/40/1 97/1/1 70/46/1
f 70/46/1 97/1/1 37/4/1 19/47/1
usemtl Material.001
f 95/75/4 37/76/4 7/77/4 33/78/4
f 86/79/4 49/80/4 19/81/4 59/82/4
f 85/83/4 61/84/4 23/85/4 60/86/4
f 84/87/4 62/88/4 15/89/4 45/90/4
f 60/86/4 23/85/4 62/88/4 84/87/4
f 12/91/4 60/86/4 84/87/4 30/92/4
f 30/92/4 84/87/4 45/90/4 3/93/4
f 43/94/4 13/95/4 61/84/4 85/83/4
f 2/96/4 43/94/4 85/83/4 42/97/4
f 42/97/4 85/83/4 60/86/4 12/91/4
f 31/98/4 6/99/4 49/80/4 86/79/4
f 13/95/4 31/98/4 86/79/4 61/84/4
f 61/84/4 86/79/4 59/82/4 23/85/4
f 59/82/4 19/81/4 37/76/4 95/75/4
f 23/85/4 59/82/4 95/75/4 62/88/4
f 62/88/4 95/75/4 33/78/4 15/89/4
usemtl Material.002
f 94/100/5 38/101/5 8/102/5 34/103/5
f 89/104/5 50/105/5 20/106/5 55/107/5
f 88/108/5 57/109/5 22/110/5 56/111/5
f 87/112/5 58/113/5 16/114/5 46/115/5
f 56/111/5 22/110/5 58/113/5 87/112/5
f 14/116/5 56/111/5 87/112/5 32/117/5
f 32/117/5 87/112/5 46/115/5 4/118/5
f 45/119/5 15/120/5 57/109/5 88/108/5
f 3/121/5 45/119/5 88/108/5 44/122/5
f 44/122/5 88/108/5 56/111/5 14/116/5
f 33/123/5 7/124/5 50/105/5 89/104/5
f 15/120/5 33/123/5 89/104/5 57/109/5
f 57/109/5 89/104/5 55/107/5 22/110/5
f 55/107/5 20/106/5 38/101/5 94/100/5
f 22/110/5 55/107/5 94/100/5 58/113/5
f 58/113/5 94/100/5 34/103/5 16/114/5
usemtl Material.003
f 98/125/6 30/126/6 3/127/6 44/128/6
f 77/129/6 42/130/6 12/131/6 71/132/6
f 76/133/6 73/134/6 26/135/6 72/136/6
f 75/137/6 74/138/6 14/139/6 32/140/6
f 72/136/6 26/135/6 74/138/6 75/137/6
f 10/141/6 72/136/6 75/137/6 28/142/6
f 28/142/6 75/137/6 32/140/6 4/143/6
f 39/144/6 9/145/6 73/134/6 76/133/6
f 1/146/6 39/144/6 76/133/6 40/147/6
f 40/147/6 76/133/6 72/136/6 10/141/6
f 27/148/6 2/149/6 42/130/6 77/129/6
f 9/145/6 27/148/6 77/129/6 73/134/6
f 73/134/6 77/129/6 71/132/6 26/135/6
f 71/132/6 12/131/6 30/126/6 98/125/6
f 26/135/6 71/132/6 98/125/6 74/138/6
f 74/138/6 98/125/6 44/128/6 14/139/6
o Cube
v 0.173676 0.000000 -1.215211
v 0.173676 0.000000 -0.215211
v -0.826324 0.000000 -0.215211
v -0.826324 0.000000 -1.215211
v 0.173676 1.000000 -1.215211
v 0.173675 1.000000 -0.215211
v -0.826324 1.000000 -0.215211
v -0.826324 1.000000 -1.215211
v 0.173676 0.000000 -0.715211
v -0.326324 0.000000 -1.215211
v 0.173676 0.500000 -1.215211
v -0.326324 0.000000 -0.215211
v 0.173676 0.500000 -0.215211
v -0.826324 0.000000 -0.715211
v -0.826324 0.500000 -0.215211
v -0.826324 0.500000 -1.215211
v 0.173676 1.000000 -0.715211
v -0.326324 1.000000 -1.215211
v -0.326324 1.000000 -0.215211
v -0.826324 1.000000 -0.715211
v -0.326324 0.500000 -1.215211
v -0.826324 0.500000 -0.715211
v -0.326324 0.500000 -0.215211
v 0.173676 0.500000 -0.715211
v -0.326324 1.000000 -0.715211
v -0.326324 0.000000 -0.715211
vt 0.1667 0.8333
vt 0.3333 0.8333
vt 0.3333 1.0000
vt 0.1667 1.0000
vt 0.5000 0.5000
vt 0.5000 0.6667
vt 0.3333 0.6667
vt 0.3333 0.5000
vt 0.5000 0.1667
vt 0.3333 0.1667
vt 0.3333 0.0000
vt 0.5000 0.0000
vt 0.1667 0.1667
vt 0.1667 0.0000
vt 0.3333 0.0000
vt 0.3333 0.1667
vt 0.8333 0.1667
vt 0.6667 0.1667
vt 0.6667 0.0000
vt 0.8333 0.0000
vt 0.1667 0.5000
vt 0.3333 0.5000
vt 0.3333 0.6667
vt 0.1667 0.6667
vt 0.0000 0.5000
vt 0.0000 0.6667
vt 0.0000 0.3333
vt 0.1667 0.3333
vt 0.3333 0.3333
vt 1.0000 0.1667
vt 1.0000 0.0000
vt 1.0000 0.3333
vt 0.8333 0.3333
vt 0.6667 0.3333
vt 0.1667 0.3333
vt 0.3333 0.3333
vt 0.0000 0.3333
vt 0.0000 0.1667
vt 0.0000 0.0000
vt 0.6667 0.1667
vt 0.6667 0.0000
vt 0.6667 0.3333
vt 0.5000 0.3333
vt 0.3333 0.3333
vt 0.5000 0.3333
vt 0.3333 0.3333
vt 0.6667 0.3333
vt 0.6667 0.5000
vt 0.6667 0.6667
vt 0.0000 0.8333
vt 0.0000 1.0000
vt 0.0000 0.6667
vt 0.1667 0.6667
vt 0.3333 0.6667
vn 0.0000 -1.0000 0.0000
vn 0.0000 1.0000 0.0000
vn 1.0000 0.0000 0.0000
vn -0.0000 -0.0000 1.0000
vn -1.0000 -0.0000 -0.0000
vn 0.0000 0.0000 -1.0000
usemtl Material.005
s off
f 124/150/7 110/151/7 101/152/7 112/153/7
f 123/154/8 118/155/8 105/156/8 117/157/8
f 122/158/9 115/159/9 104/160/9 111/161/9
f 121/162/10 117/163/10 105/164/10 113/165/10
f 120/166/11 118/167/11 106/168/11 114/169/11
f 119/170/12 108/171/12 102/172/12 114/173/12
f 116/174/12 119/170/12 114/173/12 106/175/12
f 103/176/12 109/177/12 119/170/12 116/174/12
f 109/177/12 99/178/12 108/171/12 119/170/12
f 112/179/11 120/166/11 114/169/11 102/180/11
f 101/181/11 113/182/11 120/166/11 112/179/11
f 113/182/11 105/183/11 118/167/11 120/166/11
f 110/184/10 121/162/10 113/165/10 101/185/10
f 100/186/10 111/187/10 121/162/10 110/184/10
f 111/187/10 104/188/10 117/163/10 121/162/10
f 107/189/9 122/158/9 111/161/9 100/190/9
f 99/191/9 109/192/9 122/158/9 107/189/9
f 109/192/9 103/193/9 115/159/9 122/158/9
f 115/194/8 123/154/8 117/157/8 104/195/8
f 103/196/8 116/197/8 123/154/8 115/194/8
f 116/197/8 106/198/8 118/155/8 123/154/8
f 108/199/7 124/150/7 112/153/7 102/200/7
f 99/201/7 107/202/7 124/150/7 108/199/7
f 107/202/7 100/203/7 110/151/7 124/150/7
