# Blender v2.78 (sub 0) OBJ File: 'scene.blend'
# www.blender.org
mtllib scene.mtl
o Room_Cube.001
v -2.000000 4.000000 2.000000
v -2.000000 4.000000 -2.000000
v 2.000000 4.000000 -2.000000
v 1.999999 4.000000 2.000001
v -2.000001 0.000000 1.999999
v -1.999999 0.000000 -2.000001
v 2.000001 0.000000 -1.999999
v 2.000000 0.000000 2.000000
vt 0.3333 0.6667
vt 0.0000 0.0000
vt 0.3333 0.0000
vt 0.6667 0.0000
vt 0.6667 0.0000
vt 0.3333 0.6667
vt 0.3333 0.3333
vt 0.0000 0.3333
vt 0.6667 0.3333
vt 0.3333 1.0000
vt 0.3333 0.6667
vt 0.3333 0.3333
vt 0.0000 1.0000
vt 0.6667 0.3333
vt 0.3333 0.3333
vt 0.0000 0.3333
vt 1.0000 0.3333
vt 0.0000 0.6667
vt 0.6667 0.3333
vt 0.0000 0.6667
vt 1.0000 0.0000
vt 0.3333 0.0000
vt 0.6667 0.6667
vn -0.0000 -0.0000 1.0000
vn -1.0000 -0.0000 -0.0000
vn 0.0000 -1.0000 0.0000
vn 0.0000 -0.0000 -1.0000
vn 1.0000 0.0000 0.0000
vn 0.0000 1.0000 0.0000
usemtl Grey
s off
f 4/1/1 1/2/1 5/3/1
f 2/4/2 6/5/2 5/6/2
f 8/7/3 5/8/3 6/9/3
f 8/7/3 6/9/3 7/10/3
f 4/1/1 5/3/1 8/11/1
f 2/4/2 5/6/2 1/12/2
usemtl Green_y
f 3/13/4 7/14/4 6/15/4
f 3/13/4 6/15/4 2/16/4
usemtl Red_x
f 8/7/5 7/17/5 3/18/5
f 8/7/5 3/18/5 4/19/5
usemtl Blue_z
f 4/20/6 3/21/6 2/22/6
f 4/20/6 2/22/6 1/23/6
o Cube
v 0.173676 0.000000 -1.215211
v 0.173676 0.000000 -0.215211
v -0.826324 0.000000 -0.215211
v -0.826324 0.000000 -1.215211
v 0.173676 1.000000 -1.215211
v 0.173675 1.000000 -0.215211
v -0.826324 1.000000 -0.215211
v -0.826324 1.000000 -1.215211
vt 0.3333 0.0000
vt 0.3333 0.0000
vt 0.6667 0.0000
vt 0.3333 1.0000
vt 0.6667 0.3333
vt 0.3333 0.3333
vt 1.0000 0.0000
vt 0.0000 0.6667
vt 0.3333 0.3333
vt 0.3333 0.6667
vt 0.0000 0.0000
vt 0.6667 0.3333
vt 0.0000 0.3333
vt 0.6667 0.3333
vt 0.3333 0.6667
vt 0.3333 0.3333
vt 0.0000 1.0000
vt 0.0000 0.6667
vt 0.0000 0.3333
vt 0.6667 0.0000
vt 0.6667 0.6667
vt 0.3333 0.3333
vt 1.0000 0.3333
vt 0.3333 0.6667
vn 0.0000 -1.0000 0.0000
vn 0.0000 -0.0000 -1.0000
vn -0.0000 -0.0000 1.0000
vn -1.0000 -0.0000 -0.0000
vn 0.0000 1.0000 0.0000
vn 1.0000 0.0000 0.0000
usemtl Material.005
s off
f 14/24/7 15/25/7 16/26/7
f 11/27/8 15/28/8 14/29/8
f 12/30/9 9/31/9 13/32/9
f 10/33/10 14/34/10 13/35/10
f 10/36/11 9/37/11 12/38/11
f 11/39/12 12/40/12 16/41/12
f 14/24/7 16/26/7 13/42/7
f 11/27/8 14/29/8 10/43/8
f 12/30/9 13/32/9 16/44/9
f 10/33/10 13/35/10 9/45/10
f 10/36/11 12/38/11 11/46/11
f 11/39/12 16/41/12 15/47/12
