# Blender v2.78 (sub 0) OBJ File: 'scene.blend'
# www.blender.org
mtllib scene.mtl
o Room_Cube.001
v -2.000000 -2.000000 4.000000
v -2.000000 2.000000 4.000000
v 2.000000 2.000000 4.000000
v 1.999999 -2.000001 4.000000
v -2.000001 -1.999999 0.000000
v -1.999999 2.000001 0.000000
v 2.000001 1.999999 0.000000
v 2.000000 -2.000000 0.000000
vt 0.3333 0.6667
vt 0.0000 0.0000
vt 0.3333 0.0000
vt 0.6667 0.0000
vt 0.6667 0.0000
vt 0.3333 0.6667
vt 0.3333 0.3333
vt 1.0000 0.3333
vt 0.0000 0.6667
vt 0.0000 0.6667
vt 1.0000 0.0000
vt 0.3333 0.0000
vt 0.0000 1.0000
vt 0.6667 0.3333
vt 0.3333 0.3333
vt 0.0000 0.3333
vt 0.6667 0.3333
vt 0.3333 1.0000
vt 0.3333 0.6667
vt 0.3333 0.3333
vt 0.6667 0.3333
vt 0.6667 0.6667
vt 0.0000 0.3333
vn -0.0000 -1.0000 -0.0000
vn -1.0000 0.0000 -0.0000
vn 1.0000 -0.0000 0.0000
vn 0.0000 0.0000 1.0000
vn 0.0000 1.0000 -0.0000
vn 0.0000 0.0000 -1.0000
usemtl Grey
s off
f 4/1/1 1/2/1 5/3/1
f 2/4/2 6/5/2 5/6/2
usemtl Red_x
f 8/7/3 7/8/3 3/9/3
usemtl Blue_z
f 4/10/4 3/11/4 2/12/4
usemtl Green_y
f 3/13/5 7/14/5 6/15/5
usemtl Grey
f 8/7/6 5/16/6 6/17/6
f 8/7/6 6/17/6 7/18/6
f 4/1/1 5/3/1 8/19/1
f 2/4/2 5/6/2 1/20/2
usemtl Red_x
f 8/7/3 3/9/3 4/21/3
usemtl Blue_z
f 4/10/4 2/12/4 1/22/4
usemtl Green_y
f 3/13/5 6/15/5 2/23/5
o Cube
v 0.173676 1.215211 0.000000
v 0.173676 0.215211 0.000000
v -0.826324 0.215211 0.000000
v -0.826324 1.215211 0.000000
v 0.173676 1.215211 1.000000
v 0.173675 0.215211 1.000000
v -0.826324 0.215211 1.000000
v -0.826324 1.215211 1.000000
vt 0.3333 0.0000
vt 0.6667 0.0000
vt 0.3333 0.0000
vt 0.3333 1.0000
vt 0.3333 0.3333
vt 0.6667 0.3333
vt 1.0000 0.0000
vt 0.3333 0.3333
vt 0.0000 0.6667
vt 0.3333 0.6667
vt 0.6667 0.3333
vt 0.0000 0.0000
vt 0.0000 0.3333
vt 0.3333 0.6667
vt 0.6667 0.3333
vt 0.3333 0.3333
vt 0.0000 0.6667
vt 0.0000 1.0000
vt 0.0000 0.3333
vt 0.6667 0.0000
vt 0.6667 0.6667
vt 0.3333 0.3333
vt 1.0000 0.3333
vt 0.3333 0.6667
vn 0.0000 0.0000 1.0000
vn -0.0000 -1.0000 0.0000
vn 0.0000 1.0000 0.0000
vn 1.0000 -0.0000 0.0000
vn 0.0000 0.0000 -1.0000
vn -1.0000 0.0000 -0.0000
usemtl Material.005
s off
f 14/24/7 16/25/7 15/26/7
f 11/27/8 14/28/8 15/29/8
f 12/30/9 13/31/9 9/32/9
f 10/33/10 13/34/10 14/35/10
f 10/36/11 12/37/11 9/38/11
f 11/39/12 16/40/12 12/41/12
f 14/24/7 13/42/7 16/25/7
f 11/27/8 10/43/8 14/28/8
f 12/30/9 16/44/9 13/31/9
f 10/33/10 9/45/10 13/34/10
f 10/36/11 11/46/11 12/37/11
f 11/39/12 15/47/12 16/40/12
