# Blender v2.78 (sub 0) OBJ File: 'simple_box.blend'
# www.blender.org
mtllib simple_box.mtl
o Cube
v 1.000000 1.000000 -1.000000
v 1.000000 -1.000000 -1.000000
v -1.000000 -1.000000 -1.000000
v -1.000000 1.000000 -1.000000
v 1.000000 0.999999 1.000000
v 0.999999 -1.000001 1.000000
v -1.000000 -1.000000 1.000000
v -1.000000 1.000000 1.000000
vt 0.3333 0.0000
vt 0.0000 0.3333
vt 0.3333 0.3333
vt 0.3333 0.6667
vt 0.0000 1.0000
vt 0.3333 1.0000
vt 0.6667 0.0000
vt 0.3333 0.3333
vt 0.6667 0.3333
vt 1.0000 0.0000
vt 0.6667 0.3333
vt 1.0000 0.3333
vt 0.3333 0.3333
vt 0.0000 0.6667
vt 0.3333 0.6667
vt 0.6667 0.3333
vt 0.3333 0.6667
vt 0.6667 0.6667
vt 0.0000 0.0000
vt 0.0000 0.6667
vt 0.3333 0.0000
vt 0.6667 0.0000
vt 0.0000 0.3333
vn 1.0000 -0.0000 0.0000
vn -1.0000 0.0000 -0.0000
vn 0.0000 0.0000 1.0000
vn -0.0000 -1.0000 0.0000
vn 0.0000 0.0000 -1.0000
vn 0.0000 1.0000 0.0000
usemtl Red_x
s off
f 2/1/1 5/2/1 6/3/1
usemtl Grey
f 8/4/2 3/5/2 7/6/2
usemtl Blue_z
f 6/7/3 8/8/3 7/9/3
usemtl Grey
f 3/10/4 6/11/4 7/12/4
f 1/13/5 3/14/5 4/15/5
usemtl Green_y
f 4/16/6 5/17/6 1/18/6
usemtl Red_x
f 2/1/1 1/19/1 5/2/1
usemtl Grey
f 8/4/2 4/20/2 3/5/2
usemtl Blue_z
f 6/7/3 5/21/3 8/8/3
usemtl Grey
f 3/10/4 2/22/4 6/11/4
f 1/13/5 2/23/5 3/14/5
usemtl Green_y
f 4/16/6 8/8/6 5/17/6
