# Blender v2.78 (sub 0) OBJ File: 'scene.blend'
# www.blender.org
mtllib scene.mtl
o Room_Cube
v -2.000000 4.000000 2.000000
v -2.000000 4.000000 -2.000000
v 2.000000 4.000000 -2.000000
v 1.999999 4.000000 2.000001
v -2.000001 0.000000 1.999999
v -1.999999 0.000000 -2.000001
v 2.000001 0.000000 -1.999999
v 2.000000 0.000000 2.000000
vn 0.0000 1.0000 0.0000
vn 0.0000 -1.0000 0.0000
vn -1.0000 -0.0000 -0.0000
vn 0.0000 0.0000 -1.0000
vn 1.0000 0.0000 0.0000
vn -0.0000 -0.0000 1.0000
usemtl Material
s off
f 1/0/1 4/0/1 3/0/1 2/0/1
f 5/0/2 6/0/2 7/0/2 8/0/2
f 1/0/3 2/0/3 6/0/3 5/0/3
f 2/0/4 3/0/4 7/0/4 6/0/4
f 3/0/5 4/0/5 8/0/5 7/0/5
f 5/0/6 8/0/6 4/0/6 1/0/6
o Cube_Cube.005
v 0.500000 0.000000 -0.500000
v 0.500000 0.000000 0.500000
v -0.500000 0.000000 0.500000
v -0.500000 0.000000 -0.500000
v 0.500000 1.000000 -0.500000
v 0.500000 1.000000 0.500000
v -0.500000 1.000000 0.500000
v -0.500000 1.000000 -0.500000
vn 0.0000 -1.0000 0.0000
vn 0.0000 1.0000 0.0000
vn 1.0000 0.0000 0.0000
vn -0.0000 -0.0000 1.0000
vn -1.0000 -0.0000 -0.0000
vn 0.0000 0.0000 -1.0000
usemtl Material.005
s off
f 9/0/7 10/0/7 11/0/7 12/0/7
f 13/0/8 16/0/8 15/0/8 14/0/8
f 9/0/9 13/0/9 14/0/9 10/0/9
f 10/0/10 14/0/10 15/0/10 11/0/10
f 11/0/11 15/0/11 16/0/11 12/0/11
f 13/0/12 9/0/12 12/0/12 16/0/12
